<svg width="79" height="40" viewBox="0 0 79 40" fill="none" xmlns="http://www.w3.org/2000/svg">
<path d="M78.7524 1.82806L73.724 1.84231L77.8644 4.30663V5.1803L73.8285 7.63513H78.7476V9.45369H70.367V7.84879L75.5758 4.71023L70.367 1.61914V0.0237497L78.7476 0V1.81857L78.7524 1.82806Z" fill="#1E1852"/>
<path d="M37.1485 39.4004H27.975L21.2325 25.3505C19.1699 26.4709 17.604 28.4193 15.9689 30.454C14.6868 32.0493 13.362 33.6977 11.7219 35.0416C9.81782 36.599 7.59566 37.9902 4.8227 38.9303C3.56918 39.3529 1.43249 39.9085 0.630042 39.9844C0.292919 40.0177 0.0602578 40.0034 0.00802748 39.8847C-0.0299582 39.7898 0.0602555 39.7185 0.421119 39.5476C0.492756 39.5135 0.603703 39.4638 0.743653 39.4012C1.4015 39.1068 2.70007 38.5258 3.56919 37.919C4.88919 37.0026 5.6394 36.0054 5.70113 35.241C5.63425 35.0043 5.49104 34.714 5.3189 34.3652C4.56223 32.8318 3.24652 30.1654 5.39725 25.9297C5.77338 25.1869 6.12994 24.5269 6.45976 23.9164C6.95849 22.9931 7.39606 22.1832 7.7476 21.3715C8.42185 19.8235 8.89668 17.6346 9.06287 16.0155C9.07236 15.9205 9.09135 15.9253 9.14358 15.9775C10.4303 17.2785 15.4112 22.4018 14.6895 27.5014C16.3466 26.8651 19.2193 24.9326 20.544 23.9023C20.861 23.6562 21.1527 23.4077 21.4315 23.1702C22.3846 22.3582 23.1869 21.6747 24.3331 21.6564C25.0824 21.6429 25.4444 21.8407 25.809 22.0399C26.0891 22.1929 26.3707 22.3468 26.8307 22.4066C27.0918 22.4398 27.4812 22.3876 27.6806 22.2926C27.7613 22.2546 27.7423 22.1644 27.6189 22.1359C27.0193 21.9935 26.6094 21.7067 26.2006 21.4206C25.6282 21.0203 25.0579 20.6212 23.9722 20.6212C22.7182 20.6212 21.6566 21.4873 20.7995 22.1866C20.5143 22.4193 20.2517 22.6335 20.0122 22.7912L15.302 12.9766C13.3315 8.86942 13.9345 5.88754 18.2554 0.0187542L37.1485 39.4004Z" fill="#1E1852"/>
<path d="M51.9724 39.405H46.2746C43.872 39.405 42.6612 38.878 41.7828 37.7289C40.8426 36.5039 40.8426 34.6378 40.8426 32.8668V0.0328482H48.1691V33.9208C48.1691 36.6036 48.4683 38.5218 51.9724 39.2863V39.405Z" fill="#1E1852"/>
<path d="M61.0368 39.405H66.7346V39.2863C63.2304 38.5218 62.9313 36.6036 62.9313 33.9208V0.0328482H55.6048V32.8667C55.6048 34.6378 55.6048 36.5039 56.545 37.7289C57.4234 38.878 58.6342 39.405 61.0368 39.405Z" fill="#1E1852"/>
<path d="M78.344 26.4617C77.9736 27.1501 77.4608 27.6962 76.8008 28.0903C76.1408 28.4844 75.4001 28.6838 74.5692 28.6838C73.7382 28.6838 72.9928 28.4844 72.3375 28.0903C71.6823 27.6962 71.1647 27.1501 70.7943 26.4617C70.424 25.7732 70.2388 24.9945 70.2388 24.135C70.2388 23.4086 70.367 22.7533 70.6234 22.1645C70.8798 21.5758 71.2454 21.0867 71.725 20.6878L72.8741 21.9319C72.2188 22.4969 71.8912 23.1996 71.8912 24.0401C71.8912 24.5576 72.0051 25.023 72.233 25.4313C72.461 25.8397 72.7791 26.1578 73.1827 26.3809C73.591 26.6089 74.0516 26.7228 74.5739 26.7228C75.0962 26.7228 75.5568 26.6089 75.9651 26.3809C76.3735 26.153 76.6916 25.8349 76.9148 25.4313C77.138 25.0277 77.2567 24.5624 77.2567 24.0401C77.2567 23.2044 76.9243 22.5016 76.2643 21.9319L77.4133 20.6878C77.9024 21.0867 78.2728 21.5805 78.5292 22.174C78.7856 22.7628 78.9138 23.4228 78.9138 24.1493C78.9138 25.004 78.7239 25.7732 78.3535 26.4664L78.344 26.4617Z" fill="#1E1852"/>
<path fill-rule="evenodd" clip-rule="evenodd" d="M76.7819 19.4959C77.4419 19.0971 77.9595 18.551 78.3346 17.853C78.7097 17.155 78.8949 16.3668 78.8949 15.4979C78.8949 14.629 78.7097 13.8455 78.3346 13.1523C77.9595 12.4543 77.4419 11.9083 76.7819 11.5094C76.1219 11.1106 75.3812 10.9111 74.5597 10.9111C73.7383 10.9111 72.9976 11.1106 72.3376 11.5094C71.6776 11.913 71.16 12.4591 70.7849 13.1523C70.4098 13.8455 70.2246 14.6242 70.2246 15.4979C70.2246 16.3716 70.4098 17.155 70.7849 17.853C71.16 18.551 71.6776 19.1018 72.3376 19.4959C72.9976 19.89 73.7383 20.0894 74.5597 20.0894C75.3812 20.0894 76.1219 19.89 76.7819 19.4959ZM75.9557 13.2188C76.3593 13.4467 76.6775 13.7601 76.9054 14.1589C77.1333 14.553 77.2472 15.0041 77.2472 15.4979C77.2472 15.9917 77.1285 16.4381 76.9054 16.8369C76.6822 17.2358 76.3641 17.5491 75.9557 17.777C75.5474 18.005 75.0868 18.1189 74.5645 18.1189C74.0422 18.1189 73.5816 18.005 73.1733 17.777C72.7697 17.5491 72.4515 17.231 72.2236 16.8369C71.9957 16.4428 71.8818 15.9917 71.8818 15.4979C71.8818 15.0041 71.9957 14.5578 72.2236 14.1589C72.4468 13.7601 72.7649 13.4467 73.1733 13.2188C73.5816 12.9909 74.0422 12.8769 74.5645 12.8769C75.0868 12.8769 75.5474 12.9909 75.9557 13.2188Z" fill="#1E1852"/>
<path d="M72.3327 31.8176C72.3327 32.8797 71.4717 33.7407 70.4096 33.7407C69.3476 33.7407 68.4866 32.8797 68.4866 31.8176C68.4866 30.7556 69.3476 29.8946 70.4096 29.8946C71.4717 29.8946 72.3327 30.7556 72.3327 31.8176Z" fill="#1E1852"/>
</svg>
